<svg clip-rule="evenodd" fill-rule="evenodd" stroke-linejoin="round" stroke-miterlimit="2" viewBox="0 0 256 256" xmlns="http://www.w3.org/2000/svg" xmlns:xlink="http://www.w3.org/1999/xlink"><linearGradient id="a" gradientTransform="matrix(-50.8728 -185.252 185.252 -50.8728 229.338 241.107)" gradientUnits="userSpaceOnUse" x1="0" x2="1" y1="0" y2="0"><stop offset="0" stop-color="#fff"/><stop offset="1" stop-color="#f2f5f9"/></linearGradient><linearGradient id="b" gradientTransform="matrix(-9.60667 38.7067 -38.7067 -9.60667 154.383 193.323)" gradientUnits="userSpaceOnUse" x1="0" x2="1" y1="0" y2="0"><stop offset="0" stop-color="#2c65b9"/><stop offset="1" stop-color="#4b8ee2"/></linearGradient><linearGradient id="c" gradientTransform="matrix(-84.5323 -180.569 180.569 -84.5323 113.657 195.729)" gradientUnits="userSpaceOnUse" x1="0" x2="1" y1="0" y2="0"><stop offset="0" stop-color="#4b8bf4"/><stop offset="1" stop-color="#62acff"/></linearGradient><clipPath id="d"><path clip-rule="evenodd" d="m142.505 245h83.574c5.019 0 9.831-1.993 13.379-5.542 3.549-3.548 5.542-8.36 5.542-13.379 0-36.296 0-115.304 0-151.47 0-10.358-8.397-18.755-18.755-18.755h-126.869z"/></clipPath><clipPath id="e"><path clip-rule="evenodd" d="m181.312 201.084-62.07-189.084h-86.927c-5.388 0-10.555 2.14-14.365 5.95s-5.95 8.977-5.95 14.365v148.453c0 10.797 8.725 19.563 19.522 19.614 44.53.209 149.79.702 149.79.702z"/></clipPath><g transform="translate(-1)"><path d="m142.505 245h83.574c5.019 0 9.831-1.993 13.379-5.542 3.549-3.548 5.542-8.36 5.542-13.379 0-36.296 0-115.304 0-151.47 0-10.358-8.397-18.755-18.755-18.755h-126.869z" fill="url(#a)"/><g clip-path="url(#d)"><path d="m.4-.192.019.192h.122l-.085-.674h-.146l-.338.674h.124l.092-.192zm-.175-.09.082-.168c.019-.04.037-.087.055-.128h.002c.003.04.007.092.01.128l.019.168z" fill="#94989f" fill-rule="nonzero" transform="matrix(161.896 0 0 161.896 128.326 198.745)"/></g></g><path d="m141.656 245 39.656-43.916-16.479-48.594-52.41 1.961z" fill="url(#b)"/><path d="m181.312 201.084-62.07-189.084h-86.927c-5.388 0-10.555 2.14-14.365 5.95s-5.95 8.977-5.95 14.365v148.453c0 10.797 8.725 19.563 19.522 19.614 44.53.209 149.79.702 149.79.702z" fill="url(#c)"/><g clip-path="url(#e)"><path d="m.508-.25h-.147l.016-.092h.147l.014-.076c-.051 0-.073-.018-.066-.056l.028-.163c.006-.031.026-.047.06-.047h.146l-.016.092h-.107l-.013.072c-.002.013.003.019.016.019h.052c.024 0 .034.012.029.038l-.073.418c-.005.03-.032.045-.081.045h-.122l.007-.045.009-.046h.073l.004-.023zm-.232.205c-.005.03-.032.045-.081.045h-.122l.008-.045.008-.046h.074l.004-.023.053-.304c-.05 0-.072-.018-.066-.056l.029-.163c.006-.031.025-.047.06-.047h.146l-.016.092h-.108l-.013.072c-.002.013.004.019.017.019h.051c.024 0 .034.012.03.038z" fill="#fff" fill-rule="nonzero" transform="matrix(164.76 0 0 169.506 25.5633 162.82)"/></g></svg>